<?xml version="1.0" encoding="utf-8"?>
<!-- Generator: Adobe Illustrator 24.3.0, SVG Export Plug-In . SVG Version: 6.00 Build 0)  -->
<svg version="1.1" id="Layer_1" xmlns="http://www.w3.org/2000/svg" xmlns:xlink="http://www.w3.org/1999/xlink" x="0px" y="0px"
	 viewBox="0 0 512 512" style="enable-background:new 0 0 512 512;" xml:space="preserve">
<style type="text/css">
	.st0{fill:#FFFFFF;}
	.st1{fill:#B0B7BD;}
	.st2{fill:#CAD1D8;}
	.st3{fill:#50BEE8;}
</style>
<path class="st0" d="M128,0c-17.6,0-32,14.4-32,32v448c0,17.6,14.4,32,32,32h320c17.6,0,32-14.4,32-32V128L352,0H128z"/>
<path class="st1" d="M384,128h96L352,0v96C352,113.6,366.4,128,384,128z"/>
<polygon class="st2" points="480,224 384,128 480,128 "/>
<path class="st3" d="M416,416c0,8.8-7.2,16-16,16H48c-8.8,0-16-7.2-16-16V256c0-8.8,7.2-16,16-16h352c8.8,0,16,7.2,16,16V416z"/>
<g>
	<path class="st0" d="M100,303.2c0-4.2,3.3-8.8,8.7-8.8h29.6c16.6,0,31.6,11.1,31.6,32.5c0,20.2-15,31.5-31.6,31.5h-21.4v16.9
		c0,5.6-3.6,8.8-8.2,8.8c-4.2,0-8.7-3.2-8.7-8.8V303.2z M116.9,310.4v31.9h21.4c8.6,0,15.4-7.6,15.4-15.5c0-9-6.8-16.4-15.4-16.4
		L116.9,310.4L116.9,310.4z"/>
	<path class="st0" d="M184.3,314.7c2.9-24.8,40.4-29.3,58.1-15.7c8.7,7-0.5,18.2-8.2,12.5c-9.5-6-31-8.8-33.6,4.5
		c-3.5,21,52.2,9,51.3,43c-0.9,32.5-48,33.3-65.6,18.7c-4.2-3.4-4.1-9.1-1.8-12.5c3.3-3.3,7-4.5,11.4-0.9
		c10.5,7.2,37.5,12.5,39.4-5.6C233.6,339.6,180.3,351,184.3,314.7z"/>
	<path class="st0" d="M278.2,384c-4.2,0-8.8-2.3-8.8-7.9v-72.7c0-4.6,4.6-7.9,8.8-7.9h29.3c58.5,0,57.2,88.5,1.2,88.5H278.2z
		 M286.3,311.1v57.3h21.2c34.5,0,36.1-57.3,0-57.3H286.3z"/>
</g>
<path class="st2" d="M400,432H96v16h304c8.8,0,16-7.2,16-16v-16C416,424.8,408.8,432,400,432z"/>
</svg>
