<?xml version="1.0" encoding="utf-8"?>
<!-- Generator: Adobe Illustrator 24.3.0, SVG Export Plug-In . SVG Version: 6.00 Build 0)  -->
<svg version="1.1" id="Layer_1" xmlns="http://www.w3.org/2000/svg" xmlns:xlink="http://www.w3.org/1999/xlink" x="0px" y="0px"
	 viewBox="0 0 512 512" style="enable-background:new 0 0 512 512;" xml:space="preserve">
<style type="text/css">
	.st0{fill:#FFFFFF;}
	.st1{fill:#B0B7BD;}
	.st2{fill:#CAD1D8;}
	.st3{fill:#A066AA;}
</style>
<path class="st0" d="M128,0c-17.6,0-32,14.4-32,32v448c0,17.6,14.4,32,32,32h320c17.6,0,32-14.4,32-32V128L352,0H128z"/>
<path class="st1" d="M384,128h96L352,0v96C352,113.6,366.4,128,384,128z"/>
<polygon class="st2" points="480,224 384,128 480,128 "/>
<path class="st3" d="M416,416c0,8.8-7.2,16-16,16H48c-8.8,0-16-7.2-16-16V256c0-8.8,7.2-16,16-16h352c8.8,0,16,7.2,16,16V416z"/>
<g>
	<path class="st0" d="M155.8,311.5h-22.4c-11.1,0-11.1-16.4,0-16.4H194c11.4,0,11.4,16.4,0,16.4h-21.2v64.6c0,11.1-16.9,11.4-16.9,0
		V311.5z"/>
	<path class="st0" d="M217.5,303.2c0-10.5,16.9-10.9,16.9,0v73c0,10.6-16.9,10.9-16.9,0V303.2z"/>
	<path class="st0" d="M273.7,312.1v20.3h32.6c4.6,0,9.2,4.6,9.2,9.1c0,4.2-4.6,7.7-9.2,7.7h-32.6V376c0,4.5-3.2,7.9-7.7,7.9
		c-5.6,0-9.1-3.5-9.1-7.9v-72.7c0-4.6,3.5-7.9,9.1-7.9h44.9c5.6,0,9,3.3,9,7.9c0,4.1-3.3,8.7-9,8.7L273.7,312.1L273.7,312.1z"/>
</g>
<path class="st2" d="M400,432H96v16h304c8.8,0,16-7.2,16-16v-16C416,424.8,408.8,432,400,432z"/>
</svg>
