<?xml version="1.0" encoding="utf-8"?>
<!-- Generator: Adobe Illustrator 27.8.1, SVG Export Plug-In . SVG Version: 6.00 Build 0)  -->
<svg version="1.1" id="Layer_2" xmlns="http://www.w3.org/2000/svg" xmlns:xlink="http://www.w3.org/1999/xlink" x="0px" y="0px"
	 viewBox="0 0 283.5 41" style="enable-background:new 0 0 283.5 41;" xml:space="preserve">
<style type="text/css">
	.st0{fill:#363689;}
	.st1{fill:#FF5F00;}
	.st2{fill:#EB001B;}
	.st3{fill:#F79E1B;}
	.st4{fill:#4DB45E;}
	.st5{fill:url(#path24_00000016073859527460514880000000379343468732587452_);}
	.st6{fill:#F5CA44;}
	.st7{fill:#BE9E34;}
	.st8{fill:#201600;}
</style>
<path class="st0" d="M103.5,9.9l-4.1,19.4h-5l4.1-19.4H103.5L103.5,9.9z M124.6,22.5l2.7-7.3l1.5,7.3H124.6L124.6,22.5z M130.2,29.3
	h4.6l-4-19.4h-4.3c-1,0-1.7,0.6-2.1,1.4l-7.5,18h5.3l1.1-2.9h6.4L130.2,29.3L130.2,29.3z M117.1,23c0-5.1-7.1-5.4-7-7.7
	c0-0.7,0.7-1.4,2.1-1.6c0.7-0.1,2.7-0.2,5,0.9l0.9-4.1c-1.3-0.5-2.8-0.9-4.7-0.9c-5,0-8.5,2.6-8.5,6.4c0,2.8,2.5,4.3,4.4,5.3
	s2.6,1.5,2.6,2.4c0,1.3-1.5,1.9-3,1.9c-2.5,0-4-0.7-5.2-1.3l-0.9,4.2c1.2,0.6,3.4,1,5.6,1.1C113.6,29.6,117.1,27,117.1,23 M96.3,9.9
	l-8.2,19.4h-5.3l-4-15.5c-0.3-1-0.5-1.3-1.2-1.7c-1.3-0.7-3.2-1.3-5-1.6l0.2-0.6h8.6c1.1,0,2.1,0.8,2.3,2l2.1,11.3L91,10L96.3,9.9
	C96.3,10,96.3,9.9,96.3,9.9z"/>
<g id="Layer_2_1_">
	<g id="Layer_1-2">
		<g id="_Group_">
			<rect x="16.1" y="8.8" class="st1" width="11.9" height="21.5"/>
			<path id="_Path_" class="st2" d="M16.9,19.6c0-4.2,1.9-8.2,5.2-10.8C16.2,4.1,7.6,5.1,2.9,11.1s-3.6,14.5,2.3,19.3
				c5,3.9,11.9,3.9,16.9,0C18.8,27.8,16.9,23.8,16.9,19.6z"/>
			<path class="st3" d="M44.3,19.6c0,7.6-6.1,13.7-13.7,13.7c-3,0-6.1-1-8.5-2.9c6-4.7,7-13.3,2.3-19.3c-0.7-0.8-1.4-1.6-2.3-2.3
				c6-4.7,14.6-3.7,19.3,2.3C43.3,13.6,44.3,16.5,44.3,19.6L44.3,19.6z"/>
		</g>
	</g>
</g>
<g>
	<g id="g5">
		<path id="path7" class="st4" d="M182.2,9.6L182.2,9.6c0,0-2.8,0-3.5,2.6c-0.7,2.4-2.6,9.1-2.6,9.3h-0.5c0,0-1.9-6.8-2.6-9.3
			c-0.7-2.6-3.5-2.6-3.5-2.6h-6.3v20.1h6.3v-12h0.3h0.3l3.7,11.9h4.4l3.7-11.9h0.5v11.9h6.3v-20H182.2z"/>
	</g>
	<g id="g9">
		<path id="path11" class="st4" d="M205.3,9.6c0,0-1.9,0.2-2.7,2.1l-4.5,9.8h-0.5V9.6h-6.4v20.1h6l0,0c0,0,1.9-0.2,2.8-2.1l4.4-9.8
			h0.5v11.9h6.3V9.6H205.3z"/>
	</g>
	<g id="g13">
		<path id="path15" class="st4" d="M214,18.7v11h6.3v-6.4h6.8c3,0,5.5-1.9,6.4-4.6H214z"/>
	</g>
	<g id="g17">
		
			<linearGradient id="path24_00000105422030526169630900000002670041823513201030_" gradientUnits="userSpaceOnUse" x1="213.2" y1="1540.1594" x2="234.0851" y2="1540.1594" gradientTransform="matrix(1 0 0 1 0 -1526.4094)">
			<stop  offset="0.3" style="stop-color:#00B4E6"/>
			<stop  offset="1" style="stop-color:#088CCB"/>
		</linearGradient>
		<path id="path24" style="fill:url(#path24_00000105422030526169630900000002670041823513201030_);" d="M227.2,9.6h-14
			c0.7,3.8,3.6,6.9,7.3,7.9l0,0c0.8,0.2,1.7,0.4,2.6,0.4h10.8c0.1-0.5,0.1-0.9,0.1-1.4C234,12.6,231,9.6,227.2,9.6z"/>
	</g>
</g>
<g>
	<path class="st6" d="M262.4,17.5c0-1.6,0.1-2.5,3.4-5c2.7-2,11.2-8.8,11.2-8.8v11.4h6.5v16.4h-19c-1.1,0-2-0.9-2-2L262.4,17.5
		L262.4,17.5z"/>
	<polygon class="st7" points="277,15.1 277,21.7 265,29.8 280.1,24.9 280.1,15.1 	"/>
	<path class="st8" d="M271.5,14.8c0.7-0.8,1.7-1.1,2.3-0.7c0.6,0.5,0.4,1.5-0.3,2.4c-0.7,0.8-1.7,1.1-2.3,0.7
		C270.7,16.7,270.8,15.6,271.5,14.8"/>
</g>
</svg>
